<svg xmlns="http://www.w3.org/2000/svg" width="863.275" height="526.25" viewBox="0 0 863.275 526.25">
  <g id="Group_340" data-name="Group 340" transform="translate(0 0)">
    <path id="Path_138" data-name="Path 138" d="M168.428,713.112l-1.481-.334a337.2,337.2,0,0,1,657.6-.9l-1.48.337C788.1,558.69,653.541,451.463,495.847,451.463,340.22,451.463,202.52,561.5,168.428,713.112Z" transform="translate(-64.108 -186.862)" fill="#3f3d56"/>
    <circle id="Ellipse_14" data-name="Ellipse 14" cx="41.239" cy="41.239" r="41.239" transform="translate(275.472 11.456)" fill="#bebca4"/>
    <path id="Path_139" data-name="Path 139" d="M214.507,781.2c1.286,4.754,5.691,7.7,5.691,7.7s2.32-4.764,1.034-9.518-5.691-7.7-5.691-7.7S213.221,776.445,214.507,781.2Z" transform="translate(-75.464 -264.317)" fill="#3f3d56"/>
    <path id="Path_140" data-name="Path 140" d="M214.323,781.69c3.529,3.436,3.96,8.717,3.96,8.717s-5.291-.289-8.82-3.724-3.96-8.717-3.96-8.717S210.794,778.255,214.323,781.69Z" transform="translate(-73.39 -265.83)" fill="#aafde5"/>
    <path id="Path_141" data-name="Path 141" d="M343.507,781.2c1.286,4.754,5.691,7.7,5.691,7.7s2.32-4.764,1.034-9.518-5.691-7.7-5.691-7.7S342.221,776.445,343.507,781.2Z" transform="translate(-106.52 -264.317)" fill="#3f3d56"/>
    <path id="Path_142" data-name="Path 142" d="M343.323,781.69c3.529,3.436,3.96,8.717,3.96,8.717s-5.291-.289-8.82-3.724-3.96-8.717-3.96-8.717S339.794,778.255,343.323,781.69Z" transform="translate(-104.446 -265.83)" fill="#aafde5"/>
    <path id="Path_143" data-name="Path 143" d="M332.793,153.47l-15.507-12.406,86.839-77.535h220.2V131.76L481.66,227.9Z" transform="translate(-76.384 -15.294)" fill="#3f3d56"/>
    <path id="Path_144" data-name="Path 144" d="M716.635,107.022V65.078H687.4V75.35L676.488,63.529l-71.332,77.535-27.913,18.609-43.279,316.2,65.27,65.27H750.922V144.165Z" transform="translate(-128.548 -15.294)" fill="#ccc"/>
    <rect id="Rectangle_382" data-name="Rectangle 382" width="235.706" height="400.08" transform="translate(240.902 125.77)" fill="#f2f2f2"/>
    <rect id="Rectangle_383" data-name="Rectangle 383" width="43.42" height="97.694" transform="translate(332.393 428.156)" fill="#ccc"/>
    <path id="Path_145" data-name="Path 145" d="M370.615,595.76V580.253H352.007V595.76h18.608Z" transform="translate(-84.743 -139.692)" fill="#3f3d56"/>
    <path id="Path_146" data-name="Path 146" d="M369.064,617.016H352.007v15.507h18.608V617.016Z" transform="translate(-84.743 -148.542)" fill="#3f3d56"/>
    <rect id="Rectangle_384" data-name="Rectangle 384" width="18.608" height="15.507" transform="translate(298.278 440.561)" fill="#3f3d56"/>
    <rect id="Rectangle_385" data-name="Rectangle 385" width="18.608" height="15.507" transform="translate(298.278 468.474)" fill="#3f3d56"/>
    <path id="Path_147" data-name="Path 147" d="M538.091,595.76V580.253H519.483V595.76h18.608Z" transform="translate(-125.062 -139.692)" fill="#3f3d56"/>
    <path id="Path_148" data-name="Path 148" d="M536.54,617.016H519.483v15.507h18.608V617.016Z" transform="translate(-125.062 -148.542)" fill="#3f3d56"/>
    <rect id="Rectangle_386" data-name="Rectangle 386" width="18.608" height="15.507" transform="translate(425.435 440.561)" fill="#3f3d56"/>
    <rect id="Rectangle_387" data-name="Rectangle 387" width="18.608" height="15.507" transform="translate(425.435 468.474)" fill="#3f3d56"/>
    <path id="Path_149" data-name="Path 149" d="M709.652,187.282V171.776H691.043v15.506h18.609Z" transform="translate(-166.364 -41.354)" fill="#3f3d56"/>
    <path id="Path_150" data-name="Path 150" d="M708.1,208.539H691.043v15.506h18.609V208.539Z" transform="translate(-166.364 -50.204)" fill="#3f3d56"/>
    <rect id="Rectangle_388" data-name="Rectangle 388" width="18.608" height="15.507" transform="translate(555.694 130.422)" fill="#3f3d56"/>
    <rect id="Rectangle_389" data-name="Rectangle 389" width="18.608" height="15.507" transform="translate(555.694 158.334)" fill="#3f3d56"/>
    <path id="Path_151" data-name="Path 151" d="M709.652,301.656V286.149H691.043v15.507h18.609Z" transform="translate(-166.364 -68.888)" fill="#3f3d56"/>
    <path id="Path_152" data-name="Path 152" d="M708.1,322.912H691.043v15.507h18.609V322.912Z" transform="translate(-166.364 -77.739)" fill="#3f3d56"/>
    <rect id="Rectangle_390" data-name="Rectangle 390" width="18.608" height="15.507" transform="translate(555.694 217.261)" fill="#3f3d56"/>
    <rect id="Rectangle_391" data-name="Rectangle 391" width="18.608" height="15.507" transform="translate(555.694 245.173)" fill="#3f3d56"/>
    <path id="Path_153" data-name="Path 153" d="M709.652,416.03V400.523H691.043V416.03h18.609Z" transform="translate(-166.364 -96.423)" fill="#3f3d56"/>
    <path id="Path_154" data-name="Path 154" d="M708.1,437.286H691.043v15.507h18.609V437.286Z" transform="translate(-166.364 -105.274)" fill="#3f3d56"/>
    <rect id="Rectangle_392" data-name="Rectangle 392" width="18.608" height="15.507" transform="translate(555.694 304.1)" fill="#3f3d56"/>
    <rect id="Rectangle_393" data-name="Rectangle 393" width="18.608" height="15.507" transform="translate(555.694 332.013)" fill="#3f3d56"/>
    <path id="Path_155" data-name="Path 155" d="M709.652,530.4V514.9H691.043V530.4h18.609Z" transform="translate(-166.364 -123.958)" fill="#3f3d56"/>
    <path id="Path_156" data-name="Path 156" d="M708.1,551.66H691.043v15.507h18.609V551.66Z" transform="translate(-166.364 -132.808)" fill="#3f3d56"/>
    <rect id="Rectangle_394" data-name="Rectangle 394" width="18.608" height="15.507" transform="translate(555.694 390.939)" fill="#3f3d56"/>
    <rect id="Rectangle_395" data-name="Rectangle 395" width="18.608" height="15.507" transform="translate(555.694 418.852)" fill="#3f3d56"/>
    <rect id="Rectangle_396" data-name="Rectangle 396" width="179.881" height="37.217" transform="translate(267.264 145.929)" fill="#3f3d56"/>
    <rect id="Rectangle_397" data-name="Rectangle 397" width="179.881" height="37.217" transform="translate(267.264 220.362)" fill="#3f3d56"/>
    <rect id="Rectangle_398" data-name="Rectangle 398" width="179.881" height="37.217" transform="translate(267.264 294.796)" fill="#3f3d56"/>
    <rect id="Rectangle_399" data-name="Rectangle 399" width="179.881" height="37.217" transform="translate(267.264 369.229)" fill="#3f3d56"/>
    <rect id="Rectangle_400" data-name="Rectangle 400" width="863.275" height="1.519" transform="translate(0 524.289)" fill="#3f3d56"/>
    <rect id="Rectangle_401" data-name="Rectangle 401" width="4.46" height="176.188" transform="translate(144.566 348.966)" fill="#3f3d56"/>
    <path id="Path_157" data-name="Path 157" d="M254.363,557.324c.284,61.609-43.061,111.753-43.061,111.753S167.5,619.335,167.213,557.726s43.061-111.753,43.061-111.753S254.079,495.716,254.363,557.324Z" transform="translate(-64.172 -185.905)" fill="#022f34"/>
    <rect id="Rectangle_402" data-name="Rectangle 402" width="4.46" height="176.188" transform="translate(86.58 348.966)" fill="#3f3d56"/>
    <path id="Path_159" data-name="Path 159" d="M177.991,557.324c.284,61.609-43.061,111.753-43.061,111.753S91.125,619.335,90.841,557.726,133.9,445.973,133.9,445.973,177.707,495.716,177.991,557.324Z" transform="translate(-45.786 -185.905)" fill="#aafde5"/>
    <path id="Path_160" data-name="Path 160" d="M956.846,258.817c-35.136.162-63.735.681-63.735.681s33.995-45.029,63.608-28.346,63.631,27.76,63.631,27.76S991.981,258.655,956.846,258.817Z" transform="translate(-238.927 -133.296)" fill="#f2f2f2"/>
    <path id="Path_161" data-name="Path 161" d="M185.846,372.817c-35.136.162-63.735.681-63.735.681s33.995-45.029,63.608-28.346,63.631,27.76,63.631,27.76S220.981,372.655,185.846,372.817Z" transform="translate(-53.314 -160.741)" fill="#f2f2f2"/>
    <path id="Path_162" data-name="Path 162" d="M353.846,134.817c-35.136.162-63.735.681-63.735.681s33.995-45.029,63.608-28.346,63.631,27.76,63.631,27.76S388.981,134.655,353.846,134.817Z" transform="translate(-93.759 -103.444)" fill="#f2f2f2"/>
    <rect id="Rectangle_403" data-name="Rectangle 403" width="4.46" height="176.188" transform="translate(785.856 348.966)" fill="#3f3d56"/>
    <path id="Path_163" data-name="Path 163" d="M1098.991,557.324c.284,61.609-43.061,111.753-43.061,111.753s-43.805-49.743-44.089-111.352S1054.9,445.973,1054.9,445.973,1098.707,495.716,1098.991,557.324Z" transform="translate(-267.51 -185.905)" fill="#aafde5"/>
    <path id="Path_164" data-name="Path 164" d="M817.284,544.184H862.3V533.318h24.836v10.866H933.7V592.3H887.136v60.538H862.3V592.3H817.284L794,565.915Z" transform="translate(-191.15 -128.393)" fill="#3f3d56"/>
  </g>
</svg>
