<svg xmlns="http://www.w3.org/2000/svg" width="84.25" height="64.895" viewBox="0 0 84.25 64.895">
  <g id="Group_21" data-name="Group 21" transform="translate(-840.797 -48.637)">
    <path id="Path_19" data-name="Path 19" d="M1012.378,93.211q5.073,3.3,10.128,6.62c.363.239.5.107.689-.188.5-.8,1.025-1.577,1.534-2.367a2.361,2.361,0,0,0-.74-3.579c-2.21-1.458-4.432-2.9-6.644-4.352a3,3,0,0,0-1.469-.494,2.439,2.439,0,0,0-1.939,1.057c-.58.862-1.128,1.746-1.717,2.6C1011.994,92.838,1012.064,93.007,1012.378,93.211Z" transform="translate(-138.788 -32.582)" fill="#aca98b"/>
    <path id="Path_20" data-name="Path 20" d="M957.067,201.627q-5.079-3.29-10.131-6.62c-.3-.2-.443-.164-.631.139-.523.841-1.087,1.655-1.62,2.489a2.369,2.369,0,0,0,.729,3.482c2.231,1.473,4.473,2.929,6.709,4.392a2.387,2.387,0,0,0,1.461.466,2.3,2.3,0,0,0,1.946-1.04c.57-.84,1.105-1.7,1.676-2.541C957.428,202.065,957.443,201.871,957.067,201.627Z" transform="translate(-83.796 -118.495)" fill="#aca98b"/>
    <path id="Path_21" data-name="Path 21" d="M920.945,325.254q-12.557-.02-25.114,0a2.3,2.3,0,0,0-2.313,2.318c-.014.569.039,1.143-.014,1.708-.057.6.17.735.744.732,4.706-.023,9.411-.013,14.117-.013,4.186,0,8.371.008,12.557-.008.757,0,1.84.348,2.188-.156.385-.559.161-1.572.12-2.383A2.29,2.29,0,0,0,920.945,325.254Z" transform="translate(-42.698 -224.12)" fill="#aca98b"/>
    <path id="Path_22" data-name="Path 22" d="M982.266,128c-3.3-2.136-6.592-4.3-9.886-6.448-.143-.094-.3-.171-.432-.248-.249.058-.317.262-.419.418-2.385,3.644-4.759,7.3-7.156,10.93-.282.427-.179.617.2.865q4.984,3.229,9.945,6.493c.387.256.557.218.8-.161q3.554-5.481,7.146-10.937C982.762,128.475,982.7,128.281,982.266,128Z" transform="translate(-99.997 -58.882)" fill="#aca98b"/>
    <path id="Path_23" data-name="Path 23" d="M1084.865,210.15q-16.357-8.753-32.723-17.489c-.56-.3-1.179-.942-1.685-.762-.491.175-.736.993-1.131,1.5-.3.387-.212.593.155.881q15.191,11.923,30.365,23.868a4.493,4.493,0,0,0,2.811,1,5.011,5.011,0,0,0,4.613-3.863A4.344,4.344,0,0,0,1084.865,210.15Z" transform="translate(-168.812 -116.053)" fill="#aca98b"/>
    <path id="Path_24" data-name="Path 24" d="M922.77,48.637h-79.7a2.284,2.284,0,0,0-2.277,2.277v60.341a2.284,2.284,0,0,0,2.277,2.277h79.7a2.284,2.284,0,0,0,2.277-2.277V50.914A2.284,2.284,0,0,0,922.77,48.637ZM886.509,106.5c-.035.592-.008,1.187-.008,1.782q-20.521,0-41.042.015c-.516,0-.649-.109-.6-.613.054-.589.013-1.186.013-1.78.94-.009,1.883-.062,2.82-.012.643.035.778-.2.764-.794a10.3,10.3,0,0,1,.1-2.662,4.672,4.672,0,0,1,4.531-3.687q12.591-.023,25.181,0a4.7,4.7,0,0,1,4.66,4.633c.014.619.039,1.241-.007,1.856-.041.545.173.673.676.647.765-.039,1.536.02,2.3-.021C886.406,105.842,886.537,106.033,886.509,106.5ZM921,99.216a4.145,4.145,0,0,0-.428,1.233,7.263,7.263,0,0,1-7.276,5.011,6.622,6.622,0,0,1-3.729-1.5Q895.081,92.577,880.6,81.189l-.468-.366c-1.251-.975-1.246-.972-2.136.392q-2.047,3.141-4.106,6.274a4.762,4.762,0,0,1-6.966,1.452q-3.237-2.1-6.464-4.223a4.782,4.782,0,0,1-1.449-7.074C863.51,70.765,868.03,63.9,872.478,57a6.516,6.516,0,0,1,3.913-3.126h1.487c3.379,1.408,6.23,3.685,9.217,5.716a4.543,4.543,0,0,1,.967,6.2q-2.307,3.635-4.712,7.206c-.361.538-.343.766.261,1.088,10.676,5.683,21.319,11.425,32.018,17.063,2.495,1.315,4.647,2.785,5.368,5.693Z" fill="#aca98b"/>
  </g>
</svg>
