<svg xmlns="http://www.w3.org/2000/svg" width="51.5" height="51.5" viewBox="0 0 51.5 51.5">
  <g id="Icon_ionic-ios-chatbubbles" data-name="Icon ionic-ios-chatbubbles" transform="translate(-3.375 -3.375)">
    <path id="Path_58" data-name="Path 58" d="M47.137,37.122a3,3,0,0,1,.409-1.51,4.171,4.171,0,0,1,.26-.384,20.059,20.059,0,0,0,3.417-11.179c.037-11.414-9.594-20.674-21.5-20.674A21.356,21.356,0,0,0,8.635,19.828a19.894,19.894,0,0,0-.458,4.234A21,21,0,0,0,29.347,45a25.5,25.5,0,0,0,5.843-.953c1.4-.384,2.785-.891,3.144-1.028a3.273,3.273,0,0,1,1.151-.21,3.219,3.219,0,0,1,1.25.248l7.019,2.488a1.674,1.674,0,0,0,.483.124.985.985,0,0,0,.99-.99,1.59,1.59,0,0,0-.062-.334Z" transform="translate(3.653 0)" fill="#1dc6a6"/>
    <path id="Path_59" data-name="Path 59" d="M36.862,38.776c-.446.124-1.015.26-1.634.4a22.849,22.849,0,0,1-4.209.557A21,21,0,0,1,9.85,18.8a23.406,23.406,0,0,1,.186-2.649c.074-.532.161-1.065.285-1.585.124-.557.272-1.114.433-1.659l-.99.879A18.423,18.423,0,0,0,3.375,27.634a18.218,18.218,0,0,0,3.07,10.151c.285.433.446.768.4.99s-1.473,7.675-1.473,7.675A.993.993,0,0,0,5.7,47.4a1.009,1.009,0,0,0,.631.223.888.888,0,0,0,.359-.074l6.945-2.736a1.935,1.935,0,0,1,1.486.025,20.836,20.836,0,0,0,7.515,1.486,19.443,19.443,0,0,0,14.868-6.821s.4-.545.854-1.188C37.9,38.479,37.382,38.64,36.862,38.776Z" transform="translate(0 7.247)" fill="#1dc6a6"/>
  </g>
</svg>
