<svg xmlns="http://www.w3.org/2000/svg" width="40.5" height="40.5" viewBox="0 0 40.5 40.5">
  <path id="Icon_awesome-coins" data-name="Icon awesome-coins" d="M0,32.06v3.378C0,38.23,6.8,40.5,15.188,40.5s15.188-2.27,15.188-5.062V32.06c-3.267,2.3-9.239,3.378-15.187,3.378S3.267,34.362,0,32.06ZM25.313,10.125c8.385,0,15.188-2.27,15.188-5.062S33.7,0,25.313,0,10.125,2.27,10.125,5.063,16.928,10.125,25.313,10.125ZM0,23.762v4.082c0,2.792,6.8,5.063,15.188,5.063s15.188-2.27,15.188-5.062V23.762c-3.267,2.689-9.247,4.082-15.187,4.082S3.267,26.452,0,23.762Zm32.906.87c4.533-.878,7.594-2.508,7.594-4.382V16.872A19.425,19.425,0,0,1,32.906,19.6ZM15.188,12.656C6.8,12.656,0,15.488,0,18.984s6.8,6.328,15.188,6.328,15.188-2.832,15.188-6.328S23.572,12.656,15.188,12.656ZM32.534,17.11c4.746-.854,7.966-2.531,7.966-4.453V9.279c-2.808,1.985-7.633,3.053-12.712,3.306C30.122,13.716,31.838,15.235,32.534,17.11Z" fill="#aca98b"/>
</svg>
