<svg xmlns="http://www.w3.org/2000/svg" width="40.5" height="40.427" viewBox="0 0 40.5 40.427">
  <g id="Group_5" data-name="Group 5" transform="translate(-1250.126 -274.887)">
    <path id="Path_1" data-name="Path 1" d="M687.439,318.313q8.681,0,17.361,0a4.942,4.942,0,0,0,.912-.067,2.239,2.239,0,0,0,1.91-2.223c.006-.131,0-.262,0-.394q0-17.692,0-35.385a4.064,4.064,0,0,0-.032-.7,1.872,1.872,0,0,0-1.93-1.628c-1.967-.032-3.936-.045-5.9,0a2.155,2.155,0,0,0-2.243,2.37c-.006,1.691,0,3.382,0,5.074a2.366,2.366,0,0,1-2.63,2.665c-1.618.016-3.236,0-4.854,0a2.31,2.31,0,0,0-2.624,2.6c-.016,1.589,0,3.178-.007,4.767a5.265,5.265,0,0,1-.06.783,2.111,2.111,0,0,1-2.123,1.937c-1.7.043-3.41.023-5.116.033-.218,0-.438,0-.655.025a2.178,2.178,0,0,0-2.17,2.359c-.01,1.677,0,3.353,0,5.03a2.431,2.431,0,0,1-2.666,2.7c-1.705.011-3.411,0-5.116,0a2.133,2.133,0,0,0-2.277,1.958,6.762,6.762,0,0,0-.072.957c-.007,1.531.036,3.063-.014,4.592a2.279,2.279,0,0,0,2.425,2.527c.218.014.437.008.656.008Z" transform="translate(583 -3)" fill="#aca98b"/>
  </g>
</svg>
