<svg id="Group_339" data-name="Group 339" xmlns="http://www.w3.org/2000/svg" width="1157.574" height="710" viewBox="0 0 1157.574 710">
  <path id="Path_111" data-name="Path 111" d="M938.088,130.813h0c-52.119,0-94.37,46.889-94.37,104.73v73.488h22.6L879.4,281.8l-3.271,27.228h145.273l11.9-24.752-2.974,24.752h16.356v-57.7C1046.683,184.77,998.064,130.813,938.088,130.813Z" transform="translate(-21.213 -95)" fill="#00333a"/>
  <path id="Path_112" data-name="Path 112" d="M892.535,262.894s29.455,68.728-9.818,82.474l39.273,129.6,66.765-3.927,17.673-43.2-3.927-64.8-5.891-43.2S955.373,329.659,959.3,257Z" transform="translate(-21.213 -95)" fill="#ffb8b8"/>
  <path id="Path_113" data-name="Path 113" d="M876.826,343.4s-64.8-5.891-58.91,41.237S829.7,441.588,829.7,441.588l5.891,70.692-35.346,21.6H766.861s-102.111,23.564-51.055,49.092,68.728-19.637,68.728-19.637,94.256,0,100.147-15.709S876.826,343.4,876.826,343.4Z" transform="translate(-21.213 -95)" fill="#ffb8b8"/>
  <path id="Path_114" data-name="Path 114" d="M1002.5,323.767s60.874-21.6,64.8,25.528,3.927,51.055,3.927,51.055l11.782,66.765s23.564,58.91,23.564,76.583,17.673,72.656,17.673,72.656,23.564,76.583-1.964,74.619S1092.83,608.5,1092.83,608.5l-53.019-106.038-15.709-64.8Z" transform="translate(-21.213 -95)" fill="#ffb8b8"/>
  <path id="Path_115" data-name="Path 115" d="M886.644,335.55H870.935l-1.964,82.474s-25.528,35.346,5.891,66.765l7.855,51.055,143.348-5.891,9.818-53.019s19.637-43.2-7.855-82.474l-25.528-80.51H988.755s31.836,117.384-35.346,119.784C898.426,435.7,886.644,335.55,886.644,335.55Z" transform="translate(-21.213 -95)" fill="#1dc6a6"/>
  <path id="Path_116" data-name="Path 116" d="M956.863,803.6c.25-24.973.47-39.97.47-39.97s-1.482,15-4,39.97H799.113c40.753-128.4,78.124-233.933,79.637-238.17a.651.651,0,0,1,.042-.136l4.759-15.852v-.01l2.014-6.721v-.031l2.129-7.044,2.88-9.612,127.632-3.924,3.569,8.025,12.148,27.311a10.283,10.283,0,0,1,2.964,1.4c21.843,14.308,49.112,119.127,73.97,244.766Z" transform="translate(-21.213 -95)" fill="#00333a"/>
  <path id="Path_117" data-name="Path 117" d="M1031.956,506.389l-155.13,5.891s-7.08,53.019,0,53.019c1.964,0,162.985,13.746,161.021-9.818S1031.956,506.389,1031.956,506.389Z" transform="translate(-21.213 -95)" fill="#00333a"/>
  <circle id="Ellipse_9" data-name="Ellipse 9" cx="55.175" cy="55.175" r="55.175" transform="translate(846.498 80.035)" fill="#ffb8b8"/>
  <path id="Path_118" data-name="Path 118" d="M964.916,159.662c-9.475-12.2-23.45-19.928-39.051-19.928h-1.853c-35.723,0-64.681,32.325-64.681,72.2H871.3l1.933-14.714,2.834,14.714h70.992l5.948-12.448-1.487,12.448h13.966q9.776,48.548-28.092,97.1h23.791l11.9-24.9-2.974,24.9h45.351l8.922-57.262C1024.38,208.884,999.463,172.52,964.916,159.662Z" transform="translate(-21.213 -95)" fill="#00333a"/>
  <circle id="Ellipse_10" data-name="Ellipse 10" cx="35.346" cy="35.346" r="35.346" transform="translate(921.396 0)" fill="#00333a"/>
  <circle id="Ellipse_11" data-name="Ellipse 11" cx="48.183" cy="48.183" r="48.183" transform="translate(599.721 269.091)" fill="#1dc6a6"/>
  <path id="Path_119" data-name="Path 119" d="M323.746,374.6a8.465,8.465,0,0,1-3.789,6.957l-.317.2H176.906L177.48,380c.1-.31,10.548-30.633,56.8-24.778,4.363-1.492,46.936-15.392,72.42.224C318.01,362.379,323.746,368.821,323.746,374.6Z" transform="translate(-21.213 -95)" fill="#f2f2f2"/>
  <path id="Path_120" data-name="Path 120" d="M551.676,621.283c14.366.308,25.795,10.719,25.795,10.719s-11.864,9.911-26.231,9.6-25.795-10.719-25.795-10.719S537.31,620.975,551.676,621.283Z" transform="translate(-21.213 -95)" fill="#6c63ff"/>
  <path id="Path_121" data-name="Path 121" d="M479.449,572.243c12.979,6.166,27.863,1.985,27.863,1.985s-6.161-14.179-19.14-20.345-27.863-1.985-27.863-1.985S466.47,566.077,479.449,572.243Z" transform="translate(-21.213 -95)" fill="#6c63ff"/>
  <path id="Path_122" data-name="Path 122" d="M480.769,566.116c14.31-1.308,26.836,7.753,26.836,7.753s-10.676,11.182-24.986,12.489-26.836-7.753-26.836-7.753S466.459,567.423,480.769,566.116Z" transform="translate(-21.213 -95)" fill="#3f3d56"/>
  <path id="Path_123" data-name="Path 123" d="M533.225,568.593c-1.372,14.3,7.634,26.87,7.634,26.87s11.229-10.626,12.6-24.93-7.634-26.87-7.634-26.87S534.6,554.289,533.225,568.593Z" transform="translate(-21.213 -95)" fill="#3f3d56"/>
  <path id="Path_124" data-name="Path 124" d="M600.619,656.32c-7.506,12.254-4.923,27.5-4.923,27.5s14.752-4.625,22.257-16.879,4.923-27.5,4.923-27.5S608.124,644.066,600.619,656.32Z" transform="translate(-21.213 -95)" fill="#3f3d56"/>
  <path id="Path_125" data-name="Path 125" d="M578.844,789.549l1.094-.739a34.269,34.269,0,0,1-6.048-19c.031-9.939,4.912-19.131,9.633-28.021.876-1.65,1.75-3.3,2.59-4.939a107.811,107.811,0,0,0,8.385-21.051c7.323-27.214.113-59.321-19.286-85.887-15.389-21.074-38.33-39.5-70.132-56.339l-.617,1.167c31.621,16.74,54.415,35.041,69.684,55.951,19.166,26.246,26.3,57.934,19.077,84.765a106.533,106.533,0,0,1-8.285,20.793c-.838,1.638-1.708,3.276-2.581,4.92-4.8,9.032-9.756,18.371-9.788,28.637a35.6,35.6,0,0,0,6.274,19.747Z" transform="translate(-21.213 -95)" fill="#3f3d56"/>
  <circle id="Ellipse_12" data-name="Ellipse 12" cx="12.541" cy="12.541" r="12.541" transform="translate(408.638 455.223)" fill="#3f3d56"/>
  <path id="Path_126" data-name="Path 126" d="M737.032,709.366H46.624l11.65-14.659,170.932-215.05,7.868-9.9L307.7,380.9l84.129-105.845L500.1,411.27Z" fill="#aafde5"/>
  <path id="Path_127" data-name="Path 127" d="M526.57,508.747a101.315,101.315,0,0,1-13.888,6.864,105.924,105.924,0,0,1-76.3.752c-29.14-11.062-53.359-35.044-84.212-39.457-9.44-1.351-18.977-.759-28.521-.188l88.73-111.633Z" transform="translate(-21.213 -95)" fill="#f2f2f2"/>
  <path id="Path_128" data-name="Path 128" d="M559.385,365.387c2.35,7.271.79,15.18-1.125,22.578s-4.194,14.965-3.215,22.543c2.115,16.377,18.151,26.88,33.035,34.029s31.631,14.568,38.191,29.722c3.628,8.382,3.457,17.837,4.869,26.861a76.708,76.708,0,0,0,28.374,48.155c-12.638-.3-23.959-7.984-32.906-16.916s-16.368-19.382-26-27.576c-12.975-11.044-29.18-17.366-44.411-25s-30.408-17.451-38.292-32.556c-8.06-15.441-7.168-34.322-1.525-50.8,4.191-12.238,11.9-31.229,21.821-39.965C546.016,349.584,556.43,356.245,559.385,365.387Z" transform="translate(-21.213 -95)" fill="#f2f2f2"/>
  <rect id="Rectangle_356" data-name="Rectangle 356" width="454.772" height="96.367" transform="translate(477.049 612.963)" fill="#f2f2f2"/>
  <path id="Path_129" data-name="Path 129" d="M462.528,623.524l49.5-103.628H907.4l36.963,103.628Z" fill="#aafde5"/>
  <rect id="Rectangle_357" data-name="Rectangle 357" width="183.493" height="60.724" transform="translate(585.957 526.497)" fill="#f2f2f2"/>
  <path id="Path_130" data-name="Path 130" d="M597.837,476.993l-29.042,60.725H786.611l-17.162-60.725Z" fill="#aafde5"/>
  <rect id="Rectangle_358" data-name="Rectangle 358" width="144.88" height="77.225" transform="translate(602.128 632.104)" fill="#ccc"/>
  <rect id="Rectangle_359" data-name="Rectangle 359" width="77.225" height="74.585" transform="translate(494.87 634.744)" fill="#ccc"/>
  <rect id="Rectangle_360" data-name="Rectangle 360" width="39.933" height="69.965" transform="translate(772.09 639.365)" fill="#00333a"/>
  <rect id="Rectangle_361" data-name="Rectangle 361" width="19.471" height="18.151" transform="translate(855.255 643.325)" fill="#1dc6a6"/>
  <rect id="Rectangle_362" data-name="Rectangle 362" width="19.471" height="18.151" transform="translate(881.327 643.325)" fill="#1dc6a6"/>
  <rect id="Rectangle_363" data-name="Rectangle 363" width="19.471" height="18.811" transform="translate(855.255 668.077)" fill="#1dc6a6"/>
  <rect id="Rectangle_364" data-name="Rectangle 364" width="19.471" height="18.811" transform="translate(881.327 668.077)" fill="#1dc6a6"/>
  <rect id="Rectangle_365" data-name="Rectangle 365" width="15.238" height="14.205" transform="translate(602.788 543.113)" fill="#00333a"/>
  <rect id="Rectangle_366" data-name="Rectangle 366" width="15.238" height="14.205" transform="translate(623.192 543.113)" fill="#00333a"/>
  <rect id="Rectangle_367" data-name="Rectangle 367" width="15.238" height="14.722" transform="translate(602.788 562.484)" fill="#00333a"/>
  <rect id="Rectangle_368" data-name="Rectangle 368" width="15.238" height="14.722" transform="translate(623.192 562.484)" fill="#00333a"/>
  <rect id="Rectangle_369" data-name="Rectangle 369" width="15.238" height="14.205" transform="translate(716.976 543.113)" fill="#00333a"/>
  <rect id="Rectangle_370" data-name="Rectangle 370" width="15.238" height="14.205" transform="translate(737.38 543.113)" fill="#00333a"/>
  <rect id="Rectangle_371" data-name="Rectangle 371" width="15.238" height="14.722" transform="translate(716.976 562.484)" fill="#00333a"/>
  <rect id="Rectangle_372" data-name="Rectangle 372" width="15.238" height="14.722" transform="translate(737.38 562.484)" fill="#00333a"/>
  <rect id="Rectangle_373" data-name="Rectangle 373" width="15.238" height="14.205" transform="translate(660.212 543.113)" fill="#00333a"/>
  <rect id="Rectangle_374" data-name="Rectangle 374" width="15.238" height="14.205" transform="translate(680.616 543.113)" fill="#00333a"/>
  <rect id="Rectangle_375" data-name="Rectangle 375" width="15.238" height="14.722" transform="translate(660.212 562.484)" fill="#00333a"/>
  <rect id="Rectangle_376" data-name="Rectangle 376" width="15.238" height="14.722" transform="translate(680.616 562.484)" fill="#00333a"/>
  <rect id="Rectangle_377" data-name="Rectangle 377" width="9.595" height="8.944" transform="translate(781 646.453)" fill="#f2f2f2"/>
  <rect id="Rectangle_378" data-name="Rectangle 378" width="9.595" height="8.944" transform="translate(793.847 646.453)" fill="#f2f2f2"/>
  <rect id="Rectangle_379" data-name="Rectangle 379" width="9.595" height="9.269" transform="translate(781 658.65)" fill="#f2f2f2"/>
  <rect id="Rectangle_380" data-name="Rectangle 380" width="9.595" height="9.269" transform="translate(793.847 658.65)" fill="#f2f2f2"/>
  <circle id="Ellipse_13" data-name="Ellipse 13" cx="2.64" cy="2.64" r="2.64" transform="translate(804.102 676.657)" fill="#f2f2f2"/>
  <path id="Path_131" data-name="Path 131" d="M647.575,461.163H625.793V466.4h4.357v15.227h13.069V466.4h4.356Z" fill="#f2f2f2"/>
  <path id="Path_132" data-name="Path 132" d="M624.175,781.881c-3.752,13.871-16.605,22.462-16.605,22.462s-6.769-13.9-3.017-27.77,16.605-22.462,16.605-22.462S627.927,768.009,624.175,781.881Z" transform="translate(-21.213 -95)" fill="#1dc6a6"/>
  <path id="Path_133" data-name="Path 133" d="M590.039,781.881c3.752,13.871,16.605,22.462,16.605,22.462s6.769-13.9,3.017-27.77-16.605-22.462-16.605-22.462S586.286,768.009,590.039,781.881Z" transform="translate(-21.213 -95)" fill="#1dc6a6"/>
  <path id="Path_134" data-name="Path 134" d="M595.552,778.9c10.3,10.023,11.554,25.432,11.554,25.432s-15.437-.843-25.733-10.866-11.554-25.432-11.554-25.432S585.256,768.876,595.552,778.9Z" transform="translate(-21.213 -95)" fill="#00333a"/>
  <path id="Path_135" data-name="Path 135" d="M618.661,778.9c-10.3,10.023-11.554,25.432-11.554,25.432s15.437-.843,25.733-10.866,11.554-25.432,11.554-25.432S628.958,768.876,618.661,778.9Z" transform="translate(-21.213 -95)" fill="#00333a"/>
  <rect id="Rectangle_381" data-name="Rectangle 381" width="1157.574" height="1.32" transform="translate(0 708.68)" fill="#3f3d56"/>
  <path id="Path_136" data-name="Path 136" d="M769.445,428.221a8.465,8.465,0,0,1-3.789,6.957l-.317.2H622.6l.574-1.749c.1-.31,10.548-30.633,56.8-24.778,4.363-1.492,46.936-15.392,72.42.224C763.709,416,769.445,422.445,769.445,428.221Z" transform="translate(-21.213 -95)" fill="#f2f2f2"/>
  <path id="Path_137" data-name="Path 137" d="M330.07,595.966a8.465,8.465,0,0,1-3.789,6.957l-.317.2H183.23l.574-1.749c.1-.31,10.548-30.633,56.8-24.778,4.363-1.492,46.936-15.392,72.42.224C324.335,583.749,330.07,590.191,330.07,595.966Z" transform="translate(-21.213 -95)" fill="#f2f2f2"/>
</svg>
