<svg xmlns="http://www.w3.org/2000/svg" width="65.8" height="65.786" viewBox="0 0 65.8 65.786">
  <path id="Icon_awesome-instagram" data-name="Icon awesome-instagram" d="M32.9,18.264A16.867,16.867,0,1,0,49.769,35.131,16.84,16.84,0,0,0,32.9,18.264Zm0,27.832A10.966,10.966,0,1,1,43.868,35.131,10.985,10.985,0,0,1,32.9,46.1ZM54.393,17.574a3.934,3.934,0,1,1-3.934-3.934A3.925,3.925,0,0,1,54.393,17.574Zm11.171,3.993c-.25-5.27-1.453-9.938-5.314-13.784s-8.514-5.05-13.784-5.314c-5.431-.308-21.711-.308-27.142,0-5.255.25-9.923,1.453-13.784,5.3S.49,16.282.226,21.552c-.308,5.431-.308,21.711,0,27.142.25,5.27,1.453,9.938,5.314,13.784s8.514,5.05,13.784,5.314c5.431.308,21.711.308,27.142,0,5.27-.25,9.938-1.453,13.784-5.314s5.05-8.514,5.314-13.784c.308-5.431.308-21.7,0-27.127ZM58.547,54.522a11.1,11.1,0,0,1-6.253,6.253C47.963,62.493,37.688,62.1,32.9,62.1s-15.076.382-19.391-1.321a11.1,11.1,0,0,1-6.253-6.253C5.54,50.192,5.936,39.916,5.936,35.131S5.555,20.055,7.257,15.739a11.1,11.1,0,0,1,6.253-6.253C17.841,7.768,28.117,8.164,32.9,8.164s15.076-.382,19.391,1.321a11.1,11.1,0,0,1,6.253,6.253c1.717,4.33,1.321,14.606,1.321,19.391S60.264,50.206,58.547,54.522Z" transform="translate(0.005 -2.238)" fill="#aafde5"/>
</svg>
