<svg xmlns="http://www.w3.org/2000/svg" width="77" height="77.77" viewBox="0 0 77 77.77">
  <g id="Icon_ionic-md-contacts" data-name="Icon ionic-md-contacts" transform="translate(-2.25 -4.502)">
    <g id="Group_18" data-name="Group 18" transform="translate(2.25 14.507)">
      <path id="Path_14" data-name="Path 14" d="M39.265,24.183a21.845,21.845,0,0,1-21.526,0C9.314,26.754,4.151,35.27,2.25,42.772h52.5C52.853,35.27,47.69,26.752,39.265,24.183Z" transform="translate(-2.25 24.992)" fill="#aca98b"/>
      <path id="Path_15" data-name="Path 15" d="M24.053,8.44A18.91,18.91,0,1,0,42.968,27.35,18.912,18.912,0,0,0,24.053,8.44Zm0,33.313a14.614,14.614,0,0,1-13.218-9.025H37.271A14.614,14.614,0,0,1,24.053,41.753Z" transform="translate(2.198 -8.44)" fill="#aca98b"/>
    </g>
    <g id="Group_19" data-name="Group 19" transform="translate(37.056 4.502)">
      <path id="Path_16" data-name="Path 16" d="M29.15,37.407H57.267c-1.9-7.5-7.063-14.593-15.488-17.162A21.718,21.718,0,0,1,31.015,23.08a21.771,21.771,0,0,1-7.533-1.338,25.063,25.063,0,0,1-5,6.235C23.191,29.789,26.746,33.834,29.15,37.407Z" transform="translate(-15.073 19.752)" fill="#aca98b"/>
      <path id="Path_17" data-name="Path 17" d="M28.351,28.792H46.3a14.58,14.58,0,0,1-13.218,8.984,13.583,13.583,0,0,1-4.533-.806,22.939,22.939,0,0,1-1.165,4.487A18.921,18.921,0,1,0,17.142,13.271,23.371,23.371,0,0,1,28.351,28.792Z" transform="translate(-17.142 -4.502)" fill="#aca98b"/>
    </g>
  </g>
</svg>
