<svg xmlns="http://www.w3.org/2000/svg" width="106.612" height="89.235" viewBox="0 0 106.612 89.235">
  <g id="Group_344" data-name="Group 344" transform="translate(-774.338 -1883.735)">
    <g id="Group_261" data-name="Group 261" transform="translate(774.338 1883.735)">
      <path id="Path_37" data-name="Path 37" d="M1927.9,505.347v33.761h-49v55.475h106.612V505.347Zm-12.675,35.8h32.511c0,1.639,0,3.289,0,4.938,0,2.763,0,2.763-2.76,2.763h-29.75Zm-34.583.008h32.265c0,2.32.016,4.6-.023,6.88a1.063,1.063,0,0,1-.52.694,1.751,1.751,0,0,1-.848.116q-15.14.006-30.281,0c-.161,0-.323-.028-.593-.053Zm-.088,9.431h7.909V561h-7.909Zm14.757,40.743H1880.4V563.9h9.417V550.673h5.5Zm17.509-25.677h0V591.32a6.42,6.42,0,0,1-.788.091c-4.213.006-8.426-.012-12.638.018-.863.006-1.282-.165-1.28-1.162q.041-19.385.021-38.771c0-.161.028-.323.053-.6h5.957v.058h.142v12.429h8.537Zm.251-5.938v1.168h-7.533V550.708h7.533v6.149c.031.686.06,1.372.1,2.058A1.95,1.95,0,0,1,1913.073,559.71Zm2.134-9h7.156V561h-7.156Zm.3,40.606V565.649h-.047v-2.26h8.242a1.758,1.758,0,0,0,.169-.461V550.959h.065v-.1q.724,0,1.441,0v-.019h5.022v.994a.884.884,0,0,1,.021.162c.061,2.126.029,4.254.029,6.382,0,6.475.022,12.95-.011,19.425,0,.586-.018,1.171-.039,1.757v9.286c.056.813.117,1.636.165,2.475Zm32.4.046h-15.2c0-2.376.016-4.7,0-7.02q-.116-14.861-.236-29.723a18.548,18.548,0,0,1,.193-2.522v-1.261h5.022v.025l1.25,0v12.951h8.973Zm.072-30.106h-7.909V550.834h.243v-.189l3.788.189h3.878Zm1.871-.974v-9.4h.012v-.042h7.91v10.421h-7.91v-.974Zm15.2-7.7V561h-.025q0,14.455,0,28.909v1.441h-14.973V563.91h8.406V550.646c.53,0,1.052-.006,1.57-.012v-.051h5.022v1.5A2.028,2.028,0,0,1,1965.051,552.578ZM1982.376,561h-.065q.013,12.3-.012,24.607h.077v5.524h-.405c-.006.076-.012.152-.018.228h-14.838V564.139h8.687V550.748h1.552v-.165h5.022Zm-15.443,0V550.583h7.91V561Zm13.826-12.159h-31v-9.736H1929.79V530.67h-.069v-2.26h.033V507.876h52.755c.018.365.053.765.053,1.165q0,19.028,0,38.056C1982.563,548.762,1982.477,548.845,1980.76,548.845Z" transform="translate(-1878.899 -505.347)" fill="#3c6064"/>
    </g>
    <rect id="Rectangle_338" data-name="Rectangle 338" width="16" height="41" transform="translate(810 1929)" fill="#1dc6a6"/>
  </g>
</svg>
