<svg xmlns="http://www.w3.org/2000/svg" width="105" height="93.355" viewBox="0 0 105 93.355">
  <path id="Icon_awesome-leaf" data-name="Icon awesome-leaf" d="M99.571,1.771a2.836,2.836,0,0,0-5.159-.219A31.263,31.263,0,0,1,67.084,17.5H52.5a35.012,35.012,0,0,0-35,35,36.047,36.047,0,0,0,.273,3.737C29.4,47.913,46.191,40.84,70,40.84a2.917,2.917,0,1,1,0,5.834c-45.832,0-65.267,28.094-69.569,38.65a5.842,5.842,0,0,0,10.811,4.43c.273-.656,3.81-8.733,13.108-16.517A34.926,34.926,0,0,0,56.236,87.31C84.859,85.232,105,59.563,105,28.133A66.3,66.3,0,0,0,99.571,1.771Z" transform="translate(-0.004 0.002)" fill="#aca98b"/>
</svg>
