<svg xmlns="http://www.w3.org/2000/svg" width="65.246" height="65.245" viewBox="0 0 65.246 65.245">
  <path id="Icon_awesome-linkedin-in" data-name="Icon awesome-linkedin-in" d="M14.6,65.246H1.078V21.685H14.6Zm-6.771-49.5a7.871,7.871,0,1,1,7.834-7.908A7.9,7.9,0,0,1,7.834,15.743Zm57.4,49.5h-13.5V44.04c0-5.054-.1-11.535-7.033-11.535-7.033,0-8.111,5.491-8.111,11.171V65.246H23.078V21.685H36.051v5.942h.189c1.806-3.423,6.217-7.034,12.8-7.034,13.69,0,16.207,9.015,16.207,20.724V65.246Z" transform="translate(0 0)" fill="#aafde5"/>
</svg>
