<svg id="newlogo" xmlns="http://www.w3.org/2000/svg" width="158.922" height="158.92" viewBox="0 0 158.922 158.92">
  <path id="Path_79" data-name="Path 79" d="M-317.173,190.06l-.221-.219-.153.153a79.623,79.623,0,0,0-13.8-1.223,79.55,79.55,0,0,0-79.46,79.46,79.551,79.551,0,0,0,79.46,79.46,79.552,79.552,0,0,0,79.462-79.46A79.576,79.576,0,0,0-317.173,190.06Zm51.375,78.171a65.231,65.231,0,0,1-14.9,41.563l-41.18-41.182,41.516-41.518A65.223,65.223,0,0,1-265.8,268.231Zm-88.787-61.273-.377.377,37.337,37.337L-347.153,274.2l-40.025-40.025-.357.357A65.913,65.913,0,0,1-354.586,206.958Zm-42.3,61.273a65.254,65.254,0,0,1,3.373-20.713l36.522,36.522-25.328,25.326A65.227,65.227,0,0,1-396.888,268.231Zm24.409,50.975,40.754-40.754,41.091,41.091a65.216,65.216,0,0,1-40.71,14.231A65.215,65.215,0,0,1-372.479,319.207Z" transform="translate(410.804 -188.771)" fill="#aafde5"/>
</svg>
