<svg xmlns="http://www.w3.org/2000/svg" width="40.5" height="40.5" viewBox="0 0 40.5 40.5">
  <g id="Group_8" data-name="Group 8" transform="translate(-486.645 -139.625)">
    <path id="Path_12" data-name="Path 12" d="M575.171,233.26h4.083l1.044-5.328h-4.047Z" transform="translate(-70.884 -70.728)"/>
    <path id="Path_13" data-name="Path 13" d="M506.9,139.625a20.25,20.25,0,1,0,20.25,20.25A20.25,20.25,0,0,0,506.9,139.625Zm6.2,22.422a2.134,2.134,0,0,1,1.513.479,1.6,1.6,0,0,1,.509,1.214,1.535,1.535,0,0,1-.5,1.191,2.2,2.2,0,0,1-1.521.457H510.79l-.7,3.446q-.165.824-.292,1.273a1.7,1.7,0,0,1-.487.786,1.456,1.456,0,0,1-1.034.337,1.632,1.632,0,0,1-1.183-.42,1.45,1.45,0,0,1-.434-1.093,7.048,7.048,0,0,1,.21-1.528l.554-2.8h-3.311l-.7,3.446a7.8,7.8,0,0,1-.562,1.835,1.276,1.276,0,0,1-1.251.562,1.653,1.653,0,0,1-1.2-.42,1.45,1.45,0,0,1-.434-1.093,4.106,4.106,0,0,1,.082-.772q.082-.427.142-.756l.554-2.8q-2.067-.045-2.067-1.648a1.578,1.578,0,0,1,.517-1.221,2.183,2.183,0,0,1,1.521-.472h.7l.854-4.36h-1.558a2.149,2.149,0,0,1-1.506-.487,1.552,1.552,0,0,1-.532-1.191,1.532,1.532,0,0,1,.517-1.206,2.231,2.231,0,0,1,1.521-.457h2.232l.7-3.431a7.372,7.372,0,0,1,.367-1.363,1.678,1.678,0,0,1,.554-.749,1.535,1.535,0,0,1,.921-.255,1.644,1.644,0,0,1,1.214.42,1.462,1.462,0,0,1,.42,1.079q0,.15-.255,1.513l-.554,2.787h3.281l.719-3.431q.15-.779.285-1.259a1.723,1.723,0,0,1,.487-.809,1.448,1.448,0,0,1,1.026-.33,1.686,1.686,0,0,1,1.206.4,1.436,1.436,0,0,1,.427,1.094,4.983,4.983,0,0,1-.037.614q-.038.3-.1.577t-.075.352l-.554,2.817q2.142.045,2.142,1.663a1.52,1.52,0,0,1-.509,1.2,2.227,2.227,0,0,1-1.513.449h-.764l-.9,4.36Z" transform="translate(0)"/>
  </g>
</svg>
