<svg xmlns="http://www.w3.org/2000/svg" width="110.761" height="98.458" viewBox="0 0 110.761 98.458">
  <path id="Icon_awesome-piggy-bank" data-name="Icon awesome-piggy-bank" d="M107.686,43.075h-5.673a30.863,30.863,0,0,0-7.192-10.1l3.634-14.519H92.3a18.344,18.344,0,0,0-14.038,6.6,30.5,30.5,0,0,0-4.423-.442H49.226A30.8,30.8,0,0,0,19.073,49.229H10.766a4.62,4.62,0,0,1-4.519-5.538A4.737,4.737,0,0,1,10.958,40h.192A1.157,1.157,0,0,0,12.3,38.845V35a1.157,1.157,0,0,0-1.154-1.154A11.016,11.016,0,0,0,.093,43.191,10.777,10.777,0,0,0,10.766,55.383h7.692a30.644,30.644,0,0,0,12.307,24.48V95.381a3.086,3.086,0,0,0,3.077,3.077H46.149a3.086,3.086,0,0,0,3.077-3.077v-9.23H73.841v9.23a3.086,3.086,0,0,0,3.077,3.077H89.225A3.086,3.086,0,0,0,92.3,95.381V79.862a30.772,30.772,0,0,0,6.019-6.019h9.365a3.086,3.086,0,0,0,3.077-3.077V46.152A3.086,3.086,0,0,0,107.686,43.075ZM83.071,55.383a3.077,3.077,0,1,1,3.077-3.077A3.086,3.086,0,0,1,83.071,55.383ZM49.226,18.461H73.841c1.038,0,2.058.077,3.058.154,0-.058.019-.1.019-.154a18.461,18.461,0,1,0-36.922,0c0,.4.1.788.115,1.192A36.555,36.555,0,0,1,49.226,18.461Z" transform="translate(-0.002)" fill="#aca98b"/>
</svg>
