<svg xmlns="http://www.w3.org/2000/svg" width="150" height="147.731" viewBox="0 0 150 147.731">
  <g id="Group_28" data-name="Group 28" transform="translate(-749.967 -407.161)">
    <path id="Path_30" data-name="Path 30" d="M749.967,511.1q8.185-1.647,16.369-3.295c3.171-.642,6.381-1.142,9.5-1.989,9.822-2.67,16.34-10.933,17.327-21.325.94-9.905,2.135-19.786,3.225-29.677a4.07,4.07,0,0,1,.4-.783c.437,3.921.829,7.453,1.225,10.984.834,7.431,1.492,14.888,2.55,22.287,1.37,9.577,9.168,17.136,19.129,19.073,7.622,1.482,15.228,3.047,22.84,4.578a1.133,1.133,0,0,1,.8.521q-5.555,1.124-11.112,2.247c-4.326.866-8.663,1.679-12.981,2.585-10.777,2.263-18.052,10.683-19.107,21.705-.954,9.963-2.152,19.9-3.248,29.852-.011.1-.105.189-.375.649-.319-2.787-.6-5.24-.879-7.7-.914-8.133-1.675-16.286-2.771-24.394-1.442-10.661-8.862-18.216-19.354-20.226-7.394-1.417-14.767-2.949-22.149-4.432-.456-.092-.91-.2-1.364-.3Z" transform="translate(0 -30.291)" fill="#aca98b"/>
    <path id="Path_31" data-name="Path 31" d="M1005.966,444c4.423-.909,8.815-2.017,13.274-2.684,8.278-1.238,13.942-7.189,14.39-16.593.14-2.936.63-5.855.943-8.783a79.312,79.312,0,0,1,1.253-8.779c.274,2.332.562,4.663.82,7,.478,4.333.9,8.672,1.413,13a15.452,15.452,0,0,0,12.834,13.873c4.835.975,9.664,1.975,14.534,3.329-2.416.514-4.83,1.035-7.247,1.541-2.88.6-5.779,1.125-8.64,1.807A15.494,15.494,0,0,0,1038.1,460.7c-.771,6.837-1.5,13.679-2.573,20.545-.276-2.332-.566-4.662-.823-7-.478-4.332-.911-8.67-1.408-13a15.469,15.469,0,0,0-12.834-13.875c-4.836-.969-9.664-1.974-14.5-2.963C1005.969,444.274,1005.967,444.137,1005.966,444Z" transform="translate(-165.46)" fill="#aca98b"/>
    <path id="Path_32" data-name="Path 32" d="M1014.174,662.054c.436,3.8.83,7.205,1.221,10.615.188,1.637.315,3.283.567,4.91.945,6.11,4.646,9.864,10.748,11.021,3.786.718,7.562,1.491,11.357,2.608-3.76.75-7.514,1.533-11.281,2.243-6.211,1.171-9.943,4.874-10.823,11.131-.7,4.993-1.166,10.019-2.1,15.055q-.421-3.587-.842-7.174c-.311-2.689-.533-5.391-.939-8.066-.911-6.006-4.666-9.8-10.636-10.927-3.807-.722-7.6-1.49-11.454-2.595,2.521-.516,5.04-1.038,7.562-1.543,1.441-.289,2.893-.524,4.33-.829,6.139-1.3,9.783-5.616,10.411-12.155.433-4.51.977-9.009,1.48-13.512A4.109,4.109,0,0,1,1014.174,662.054Z" transform="translate(-155.135 -164.745)" fill="#aca98b"/>
  </g>
</svg>
