<svg xmlns="http://www.w3.org/2000/svg" width="65.803" height="65.803" viewBox="0 0 65.803 65.803">
  <path id="Icon_awesome-twitter-square" data-name="Icon awesome-twitter-square" d="M58.752,2.25H7.05A7.052,7.052,0,0,0,0,9.3V61a7.052,7.052,0,0,0,7.05,7.05h51.7A7.052,7.052,0,0,0,65.8,61V9.3A7.052,7.052,0,0,0,58.752,2.25ZM51.57,25.575c.029.411.029.837.029,1.248,0,12.735-9.694,27.408-27.408,27.408A27.282,27.282,0,0,1,9.4,49.913a20.3,20.3,0,0,0,2.321.118,19.314,19.314,0,0,0,11.956-4.113,9.646,9.646,0,0,1-9-6.683,10.382,10.382,0,0,0,4.348-.176A9.634,9.634,0,0,1,11.31,29.6v-.118A9.627,9.627,0,0,0,15.658,30.7a9.613,9.613,0,0,1-4.289-8.02,9.513,9.513,0,0,1,1.307-4.862A27.353,27.353,0,0,0,32.534,27.9,9.654,9.654,0,0,1,48.97,19.1a18.876,18.876,0,0,0,6.11-2.321,9.608,9.608,0,0,1-4.23,5.3,19.17,19.17,0,0,0,5.552-1.5A20.277,20.277,0,0,1,51.57,25.575Z" transform="translate(0 -2.25)" fill="#aafde5"/>
</svg>
